<svg viewBox="0 0 440 200" xmlns="http://www.w3.org/2000/svg">
<defs>
<linearGradient id="bg" x1="0" y1="0" x2="1" y2="1"><stop offset="0" stop-color="#0b1a36"/><stop offset="1" stop-color="#050f1e"/></linearGradient>
<linearGradient id="ne" x1="0" y1="0" x2="1" y2="0"><stop offset="0" stop-color="#06b6d4"/><stop offset=".5" stop-color="#3b82f6"/><stop offset="1" stop-color="#8b5cf6"/></linearGradient>
<pattern id="grid" width="26" height="26" patternUnits="userSpaceOnUse"><path d="M26 0H0V26" fill="none" stroke="#3b82f6" stroke-width="1"/></pattern>
<filter id="glow" x="-50%" y="-50%" width="200%" height="200%"><feGaussianBlur stdDeviation="2.2" result="b"/><feMerge><feMergeNode in="b"/><feMergeNode in="SourceGraphic"/></feMerge></filter>
</defs>
<rect width="440" height="200" fill="url(#bg)"/>
<circle cx="70" cy="34" r="95" fill="#06b6d4" opacity=".13"/>
<circle cx="386" cy="180" r="110" fill="#8b5cf6" opacity=".12"/>
<rect width="440" height="200" fill="url(#grid)" opacity=".12"/>
<g filter="url(#glow)" fill="none" stroke="#7fe9ff" stroke-width="3" stroke-linecap="round" stroke-linejoin="round">
  <rect x="70" y="50" width="84" height="100" rx="6" fill="#8b5cf6" fill-opacity=".08"/>
  <path d="M84 74 q9 -7 18 0 t18 0 t6 1" stroke-width="2.6"/>
  <path d="M84 92 q9 -7 18 0 t18 0 t6 1" stroke-width="2.6"/>
  <path d="M84 110 q9 -7 18 0 t12 1" stroke-width="2.6"/>
  <path d="M84 128 H120" stroke-width="2.6"/>
  <rect x="226" y="56" width="146" height="88" rx="6" fill="#06b6d4" fill-opacity=".08"/>
  <path d="M226 86H372 M226 114H372 M270 56V144 M318 56V144"/>
</g>
<g filter="url(#glow)" stroke="url(#ne)" stroke-width="4" fill="none" stroke-linecap="round" stroke-linejoin="round">
  <path d="M170 100H210"/><path d="M202 91 L212 100 L202 109"/>
</g>
</svg>
