<svg viewBox="0 0 440 200" xmlns="http://www.w3.org/2000/svg">
<defs>
<linearGradient id="bg" x1="0" y1="0" x2="1" y2="1"><stop offset="0" stop-color="#0b1a36"/><stop offset="1" stop-color="#050f1e"/></linearGradient>
<linearGradient id="ne" x1="0" y1="0" x2="1" y2="0"><stop offset="0" stop-color="#06b6d4"/><stop offset=".5" stop-color="#3b82f6"/><stop offset="1" stop-color="#8b5cf6"/></linearGradient>
<radialGradient id="sun" cx="50%" cy="50%" r="50%"><stop offset="0" stop-color="#7fe9ff" stop-opacity=".5"/><stop offset="1" stop-color="#06b6d4" stop-opacity="0"/></radialGradient>
<pattern id="grid" width="26" height="26" patternUnits="userSpaceOnUse"><path d="M26 0H0V26" fill="none" stroke="#3b82f6" stroke-width="1"/></pattern>
<filter id="glow" x="-50%" y="-50%" width="200%" height="200%"><feGaussianBlur stdDeviation="2.2" result="b"/><feMerge><feMergeNode in="b"/><feMergeNode in="SourceGraphic"/></feMerge></filter>
</defs>
<rect width="440" height="200" fill="url(#bg)"/>
<circle cx="70" cy="34" r="95" fill="#06b6d4" opacity=".13"/>
<circle cx="386" cy="180" r="110" fill="#8b5cf6" opacity=".12"/>
<rect width="440" height="200" fill="url(#grid)" opacity=".12"/>
<circle cx="138" cy="96" r="46" fill="url(#sun)"/>
<g filter="url(#glow)" fill="none" stroke="#7fe9ff" stroke-width="3" stroke-linecap="round" stroke-linejoin="round">
  <circle cx="138" cy="96" r="22" fill="#06b6d4" fill-opacity=".18"/>
  <g stroke-width="3">
    <path d="M138 56V44 M138 148V136 M98 96H86 M190 96H178 M110 68 L102 60 M166 124 L174 132 M110 124 L102 132 M166 68 L174 60"/>
  </g>
  <rect x="232" y="70" width="132" height="86" rx="9" fill="#3b82f6" fill-opacity=".10"/>
  <path d="M232 80 L298 120 L364 80"/>
</g>
</svg>
