<svg viewBox="0 0 440 200" xmlns="http://www.w3.org/2000/svg">
<defs>
<linearGradient id="bg" x1="0" y1="0" x2="1" y2="1"><stop offset="0" stop-color="#0b1a36"/><stop offset="1" stop-color="#050f1e"/></linearGradient>
<linearGradient id="ne" x1="0" y1="0" x2="1" y2="0"><stop offset="0" stop-color="#06b6d4"/><stop offset=".5" stop-color="#3b82f6"/><stop offset="1" stop-color="#8b5cf6"/></linearGradient>
<pattern id="grid" width="26" height="26" patternUnits="userSpaceOnUse"><path d="M26 0H0V26" fill="none" stroke="#3b82f6" stroke-width="1"/></pattern>
<filter id="glow" x="-50%" y="-50%" width="200%" height="200%"><feGaussianBlur stdDeviation="2.2" result="b"/><feMerge><feMergeNode in="b"/><feMergeNode in="SourceGraphic"/></feMerge></filter>
</defs>
<rect width="440" height="200" fill="url(#bg)"/>
<circle cx="70" cy="34" r="95" fill="#06b6d4" opacity=".13"/>
<circle cx="386" cy="180" r="110" fill="#8b5cf6" opacity=".12"/>
<rect width="440" height="200" fill="url(#grid)" opacity=".12"/>
<g filter="url(#glow)" fill="none" stroke="#3b82f6" stroke-width="2.4" opacity=".9">
  <path d="M150 72 L300 64 M150 72 L150 138 M150 72 L222 116 M300 64 L312 138 M222 116 L150 138 M222 116 L312 138 M222 116 L300 64"/>
</g>
<g filter="url(#glow)" fill="#06b6d4" fill-opacity=".18" stroke="#7fe9ff" stroke-width="3">
  <circle cx="150" cy="72" r="13"/>
  <circle cx="300" cy="64" r="16"/>
  <circle cx="222" cy="116" r="18"/>
  <circle cx="150" cy="138" r="12"/>
  <circle cx="312" cy="138" r="13"/>
</g>
</svg>
