<svg viewBox="0 0 440 200" xmlns="http://www.w3.org/2000/svg">
<defs>
<linearGradient id="bg" x1="0" y1="0" x2="1" y2="1"><stop offset="0" stop-color="#0b1a36"/><stop offset="1" stop-color="#050f1e"/></linearGradient>
<linearGradient id="ne" x1="0" y1="0" x2="1" y2="0"><stop offset="0" stop-color="#06b6d4"/><stop offset=".5" stop-color="#3b82f6"/><stop offset="1" stop-color="#8b5cf6"/></linearGradient>
<pattern id="grid" width="26" height="26" patternUnits="userSpaceOnUse"><path d="M26 0H0V26" fill="none" stroke="#3b82f6" stroke-width="1"/></pattern>
<filter id="glow" x="-50%" y="-50%" width="200%" height="200%"><feGaussianBlur stdDeviation="2.2" result="b"/><feMerge><feMergeNode in="b"/><feMergeNode in="SourceGraphic"/></feMerge></filter>
</defs>
<rect width="440" height="200" fill="url(#bg)"/>
<circle cx="70" cy="34" r="95" fill="#06b6d4" opacity=".13"/>
<circle cx="386" cy="180" r="110" fill="#8b5cf6" opacity=".12"/>
<rect width="440" height="200" fill="url(#grid)" opacity=".12"/>
<g filter="url(#glow)" fill="none" stroke="#7fe9ff" stroke-width="3" stroke-linecap="round" stroke-linejoin="round">
  <rect x="172" y="40" width="156" height="92" rx="6" opacity=".35"/>
  <rect x="160" y="48" width="156" height="92" rx="6" opacity=".6"/>
  <rect x="148" y="56" width="156" height="92" rx="6" fill="#3b82f6" fill-opacity=".10"/>
  <path d="M166 76H252"/>
  <g stroke-width="6" stroke-linecap="butt">
    <path d="M170 124V112"/><path d="M186 124V102"/><path d="M202 124V116"/>
  </g>
  <path d="M232 104 h54 v22 h-54Z" stroke="url(#ne)" fill="#8b5cf6" fill-opacity=".14"/>
  <path d="M226 152V164 M204 172 L226 164 L248 172"/>
</g>
</svg>
